<svg width="20" height="20" viewBox="0 0 20 20" fill="none" xmlns="http://www.w3.org/2000/svg">
<path fill-rule="evenodd" clip-rule="evenodd" d="M8.139 13.6904L5.277 10.6904C5.234 10.6454 5.213 10.5894 5.18 10.5394C5.144 10.4854 5.101 10.4374 5.076 10.3774C5.027 10.2564 5 10.1284 5 10.0004C5 9.86937 5.027 9.73937 5.077 9.61737C5.128 9.49537 5.201 9.38437 5.294 9.29237L8.293 6.29337C8.684 5.90237 9.317 5.90237 9.707 6.29337C10.098 6.68337 10.098 7.31637 9.707 7.70737L8.414 9.00037H14C14.553 9.00037 15 9.44737 15 10.0004C15 10.5524 14.553 11.0004 14 11.0004H8.337L9.586 12.3094C9.967 12.7094 9.953 13.3414 9.553 13.7234C9.153 14.1054 8.52 14.0894 8.139 13.6904ZM20 10.0004C20 4.48537 15.514 0.000366211 10 0.000366211C4.486 0.000366211 0 4.48537 0 10.0004C0 15.5144 4.486 20.0004 10 20.0004C15.514 20.0004 20 15.5144 20 10.0004Z" fill="#575A65"/>
</svg>
